<svg width="120" height="121" viewBox="0 0 120 121" fill="none" xmlns="http://www.w3.org/2000/svg">
<path fill-rule="evenodd" clip-rule="evenodd" d="M27.4576 28.1202C27.4576 24.961 30.0187 22.3999 33.178 22.3999H81.8644H82.2458C82.3264 22.3999 82.4066 22.4016 82.4864 22.4049C103.261 22.7371 120 39.6815 120 60.5355C120 81.3896 103.261 98.3341 82.4861 98.6661C82.4064 98.6694 82.3263 98.6711 82.2458 98.6711H81.8888L81.8644 98.6711L81.84 98.6711H33.178C30.0187 98.6711 27.4576 96.11 27.4576 92.9507C27.4576 89.7915 30.0187 87.2304 33.178 87.2304H44.7533C48.4296 87.2304 50.5224 82.5755 48.7031 79.381C47.9144 77.9961 46.4724 77.0609 44.8787 77.0609H30.1271C26.9679 77.0609 24.4068 74.4998 24.4068 71.3406C24.4068 68.1813 26.9679 65.6202 30.1271 65.6202H38.9653C41.6656 65.6202 43.7288 63.2358 43.7288 60.5355C43.7288 57.8352 41.6656 55.4508 38.9653 55.4508H22.2458C19.0865 55.4508 16.5254 52.8897 16.5254 49.7304C16.5254 46.5712 19.0865 44.0101 22.2458 44.0101H44.8787C46.4724 44.0101 47.9144 43.0749 48.7031 41.69C50.5224 38.4955 48.4296 33.8406 44.7533 33.8406H33.178C30.0187 33.8406 27.4576 31.2795 27.4576 28.1202ZM11.4407 49.7304C11.4407 52.8897 8.8796 55.4508 5.72034 55.4508C2.56108 55.4508 0 52.8897 0 49.7304C0 46.5712 2.56108 44.0101 5.72034 44.0101C8.8796 44.0101 11.4407 46.5712 11.4407 49.7304ZM16.6525 98.6711C19.8118 98.6711 22.3729 96.11 22.3729 92.9507C22.3729 89.7915 19.8118 87.2304 16.6525 87.2304C13.4933 87.2304 10.9322 89.7915 10.9322 92.9507C10.9322 96.11 13.4933 98.6711 16.6525 98.6711Z" fill="url(#paint0_linear_1428_20831)"/>
<circle cx="81.8639" cy="60.5353" r="30.5085" fill="white"/>
<path d="M81.9923 81.4182C93.5958 81.4182 103.002 72.0118 103.002 60.4083C103.002 48.8049 93.5958 39.3984 81.9923 39.3984C70.3889 39.3984 60.9824 48.8049 60.9824 60.4083C60.9824 72.0118 70.3889 81.4182 81.9923 81.4182Z" fill="#292F33"/>
<path d="M98.7994 60.4085C98.7994 69.6912 91.2742 77.2164 81.9915 77.2164C72.7088 77.2164 65.1836 69.6912 65.1836 60.4085C65.1836 51.1258 72.7088 43.6006 81.9915 43.6006C91.2742 43.6006 98.7994 51.1258 98.7994 60.4085Z" fill="#FFC02D"/>
<path d="M83.7781 51.3432L80.6402 48.2053C80.8751 47.9321 80.9944 47.5781 80.9727 47.2185C80.951 46.8588 80.79 46.5217 80.5239 46.2788C80.2578 46.0358 79.9075 45.9061 79.5474 45.9172C79.1872 45.9282 78.8455 46.0791 78.5948 46.3379C78.2611 46.6716 78.1351 47.1326 78.2105 47.5626C77.9193 47.5109 77.6193 47.5533 77.354 47.6839C77.0887 47.8144 76.8719 48.0262 76.7353 48.2884C76.5987 48.5507 76.5493 48.8496 76.5943 49.1419C76.6394 49.4341 76.7765 49.7043 76.9857 49.9133C77.4986 50.4262 78.3081 50.4484 78.8531 49.9924L81.991 53.129L83.7781 51.3432Z" fill="#FFE8B6"/>
<path d="M93.942 63.2954C94.8356 62.4019 97.0947 58.5669 93.968 55.4402C91.7891 53.2613 90.0329 53.3861 86.7665 52.5766C85.4268 52.1293 83.6793 50.5189 83.2331 50.0728C82.7858 50.5189 82.9427 52.1527 82.9427 52.1527C82.9427 52.1527 80.9962 52.3109 80.5488 52.7571C80.995 53.2032 83.0712 55.167 83.4346 56.0878C84.4109 59.1873 84.2997 60.7643 86.4798 62.9419C90.0527 66.5148 93.0497 64.1889 93.942 63.2954Z" fill="#C1694F"/>
<path d="M71.2808 58.5546C71.2808 60.9435 75.1107 62.8801 72.723 62.8801C72.155 62.8801 71.5925 62.7682 71.0677 62.5509C70.5429 62.3335 70.0661 62.0149 69.6644 61.6132C69.2627 61.2115 68.9441 60.7347 68.7267 60.2099C68.5093 59.6851 68.3975 59.1226 68.3975 58.5546C68.3975 57.9865 68.5093 57.424 68.7267 56.8992C68.9441 56.3744 69.2627 55.8976 69.6644 55.4959C70.0661 55.0943 70.5429 54.7756 71.0677 54.5583C71.5925 54.3409 72.155 54.229 72.723 54.229C75.112 54.229 71.2808 56.1656 71.2808 58.5546ZM82.0143 70.283C83.9905 71.2359 87.1259 68.8408 86.1718 70.8182C85.7133 71.7677 84.8963 72.4962 83.9006 72.8434C82.9049 73.1906 81.8121 73.1281 80.8625 72.6695C79.9129 72.2109 79.1844 71.394 78.8372 70.3983C78.49 69.4026 78.5526 68.3097 79.0112 67.3602C79.9653 65.3828 80.0382 69.3289 82.0143 70.283Z" fill="#77B255"/>
<path d="M78.2843 61.6442C79.6494 61.6442 80.756 60.5375 80.756 59.1724C80.756 57.8073 79.6494 56.7007 78.2843 56.7007C76.9191 56.7007 75.8125 57.8073 75.8125 59.1724C75.8125 60.5375 76.9191 61.6442 78.2843 61.6442Z" fill="#F4900C"/>
<path d="M89.4068 69.0596C90.0893 69.0596 90.6427 68.5063 90.6427 67.8238C90.6427 67.1412 90.0893 66.5879 89.4068 66.5879C88.7242 66.5879 88.1709 67.1412 88.1709 67.8238C88.1709 68.5063 88.7242 69.0596 89.4068 69.0596Z" fill="#F4900C"/>
<path d="M73.3404 67.8238C74.0229 67.8238 74.5762 67.2705 74.5762 66.5879C74.5762 65.9054 74.0229 65.3521 73.3404 65.3521C72.6578 65.3521 72.1045 65.9054 72.1045 66.5879C72.1045 67.2705 72.6578 67.8238 73.3404 67.8238Z" fill="#F4900C"/>
<defs>
<linearGradient id="paint0_linear_1428_20831" x1="120" y1="98.6711" x2="-8.12981" y2="40.2217" gradientUnits="userSpaceOnUse">
<stop stop-color="#1BAC4B"/>
<stop offset="1" stop-color="#46D375"/>
</linearGradient>
</defs>
</svg>
