<svg width="20" height="20" viewBox="0 0 20 20" fill="none" xmlns="http://www.w3.org/2000/svg">
<path fill-rule="evenodd" clip-rule="evenodd" d="M2.91699 8.59846C2.91699 4.76523 6.12023 1.66699 9.99486 1.66699C13.8804 1.66699 17.0837 4.76523 17.0837 8.59846C17.0837 10.5301 16.3812 12.3233 15.2249 13.8433C13.9493 15.5199 12.3771 16.9807 10.6074 18.1273C10.2024 18.3923 9.83689 18.4123 9.39237 18.1273C7.61261 16.9807 6.0404 15.5199 4.77574 13.8433C3.61865 12.3233 2.91699 10.5301 2.91699 8.59846ZM7.66218 8.81428C7.66218 10.0984 8.71004 11.1084 9.99486 11.1084C11.2805 11.1084 12.3385 10.0984 12.3385 8.81428C12.3385 7.54015 11.2805 6.48102 9.99486 6.48102C8.71004 6.48102 7.66218 7.54015 7.66218 8.81428Z" fill="white"/>
</svg>
